<?xml version="1.0" encoding="utf-8"?>
<!-- Generator: Adobe Illustrator 24.1.2, SVG Export Plug-In . SVG Version: 6.00 Build 0)  -->
<svg version="1.1" id="Ebene_1" xmlns="http://www.w3.org/2000/svg" xmlns:xlink="http://www.w3.org/1999/xlink" x="0px" y="0px"
	 viewBox="0 0 102 114" style="enable-background:new 0 0 102 114;" xml:space="preserve">
<style type="text/css">
	.st0{fill:#D74B00;}
	.st1{fill:#FFFFFF;}
</style>
<g id="Gruppe_46500" transform="translate(-133.497 -166.499)">
	<g id="Gruppe_46499" transform="translate(122.145 185.999)">
		<g id="Gruppe_46495" transform="translate(13.418 9.307)">
			<path id="Pfad_1776" class="st0" d="M18.8,32.7c-2,8.3-2,17,0,25.4c13.5,4,27.9,4,41.4,0c2-8.3,2-17,0-25.4
				C46.7,28.7,32.4,28.7,18.8,32.7z"/>
			<path id="Pfad_1777" class="st0" d="M41.4,80.6c-0.6,0-1.2,0-1.9,0C40.2,80.6,40.8,80.6,41.4,80.6z"/>
			<path id="Pfad_1778" class="st0" d="M78.7,38.9c-1.4-21.6-20-38-41.6-36.6c-8.4,0.5-16.3,3.7-22.7,9.2c-1,0.9-2.6,0.8-3.5-0.1
				L8.2,8.8L1.7,28.4l19.6-6.5l-1.8-1.8c-1-1-1-2.7,0-3.7c0.1-0.1,0.2-0.2,0.4-0.3c16.2-10.9,38.1-6.6,49,9.6
				c10.9,16.2,6.6,38.1-9.6,49c-5.3,3.6-11.5,5.6-17.8,6c21.6-1,38.3-19.4,37.3-41C78.7,39.4,78.7,39.1,78.7,38.9z"/>
		</g>
		<path id="Pfad_1779" class="st1" d="M45.1,50.7c0-2.9-2.3-5.2-5.2-5.2h-5.2v2.6h5.2c1.4,0,2.6,1.2,2.6,2.6c0,1.4-1.2,2.6-2.6,2.6
			c0,0,0,0,0,0h-5.2V56h5.2c1.4,0,2.6,1.2,2.6,2.6c0,1.4-1.2,2.6-2.6,2.6c0,0,0,0,0,0h-5.2v2.6h5.2c2.9,0,5.2-2.3,5.2-5.2
			c0-1.5-0.7-3-1.8-4C44.5,53.7,45.1,52.3,45.1,50.7z"/>
		<path id="Pfad_1780" class="st1" d="M58.2,58.6c0-2.9-2.3-5.2-5.2-5.2c-0.9,0-1.8,0.3-2.6,0.7v-3.3c0-1.4,1.2-2.6,2.6-2.6
			c1.4,0,2.6,1.2,2.6,2.6h2.6c0-2.9-2.3-5.2-5.2-5.2c-2.9,0-5.2,2.3-5.2,5.2v7.8c0,2.9,2.3,5.2,5.2,5.2
			C55.9,63.8,58.2,61.5,58.2,58.6z M50.4,58.6c0-1.4,1.2-2.6,2.6-2.6s2.6,1.2,2.6,2.6s-1.2,2.6-2.6,2.6C51.5,61.2,50.4,60,50.4,58.6
			L50.4,58.6z"/>
		<path id="Pfad_1781" class="st1" d="M66,63.8c2.9,0,5.2-2.3,5.2-5.2v-7.8c0-2.9-2.3-5.2-5.2-5.2c-2.9,0-5.2,2.3-5.2,5.2v7.8
			C60.8,61.5,63.1,63.8,66,63.8z M63.4,50.7c0-1.4,1.2-2.6,2.6-2.6s2.6,1.2,2.6,2.6v7.8c0,1.4-1.2,2.6-2.6,2.6s-2.6-1.2-2.6-2.6
			V50.7z"/>
		<path id="Pfad_1782" class="st1" d="M93.4,48.2c-1.5-20.6-18-36.8-38.6-37.9c-10.2-0.5-20.1,2.9-27.9,9.5
			c-0.5,0.4-1.3,0.4-1.8-0.1L21,15.7l-8,24.1l7.9-2.6c-9.7,17.7-3.2,39.9,14.5,49.6c5.4,3,11.4,4.5,17.6,4.5c0.6,0,1.3,0,1.9-0.1
			c10.5-0.5,20.4-5.1,27.6-12.7C90.2,70.3,94.1,59.3,93.4,48.2z M24.7,35.9l9.5-3.2c-1.3,2.6-2.3,5.4-3,8.2
			c-4.9,1.7-8.8,3.9-11.4,6.5C20.7,43.3,22.4,39.4,24.7,35.9L24.7,35.9z M64.3,86.7c4.7-4,8.4-10.5,10.4-18.3
			c4.9-1.7,8.8-3.9,11.4-6.5C83.6,73.4,75.4,82.7,64.3,86.7z M75.5,65.3c1.4-7,1.4-14.3,0-21.3c7,2.7,11.5,6.5,11.5,10.7
			S82.5,62.7,75.5,65.3z M32.1,54.7c0-3.9,0.4-7.8,1.3-11.6c6.4-1.9,13-2.8,19.6-2.7c6.6,0,13.3,0.9,19.6,2.7
			c1.7,7.7,1.7,15.6,0,23.3c-6.4,1.9-13,2.8-19.6,2.7c-6.6,0-13.3-0.9-19.6-2.7C32.5,62.5,32.1,58.6,32.1,54.7z M30.5,65.3
			c-7-2.7-11.5-6.5-11.5-10.7s4.5-8,11.5-10.7C29.1,51,29.1,58.3,30.5,65.3z M74.8,40.9c-2-7.8-5.7-14.2-10.4-18.3
			c11,3.9,19.3,13.3,21.8,24.7C83.6,44.8,79.6,42.6,74.8,40.9z M71.8,40c-6.2-1.6-12.5-2.4-18.9-2.4c-6.4,0-12.7,0.7-18.9,2.4
			C37.5,28.6,44.7,20.7,53,20.7S68.5,28.6,71.8,40L71.8,40z M35.5,30.2l-1.7-1.7c-0.3-0.3-0.4-0.7-0.4-1.1c0-0.4,0.2-0.7,0.5-0.9
			c2.4-1.6,4.9-2.9,7.6-3.8C39.2,24.8,37.1,27.3,35.5,30.2z M19.8,61.9c2.6,2.6,6.5,4.8,11.4,6.5c2,7.8,5.7,14.2,10.4,18.3
			C30.6,82.7,22.3,73.4,19.8,61.9z M34.1,69.3c6.2,1.6,12.5,2.4,18.9,2.4c6.4,0,12.7-0.7,18.9-2.4C68.5,80.7,61.3,88.6,53,88.6
			S37.5,80.7,34.1,69.3z M87.9,65.4c5.9-19.3-5-39.8-24.3-45.7c-10.5-3.2-22-1.5-31.1,4.6c-1,0.6-1.6,1.7-1.7,2.8
			c-0.1,1.2,0.3,2.3,1.1,3.2l0.3,0.3l-15.1,5l5-15.1l1.1,1.1c1.4,1.4,3.7,1.5,5.3,0.2c16-13.5,39.9-11.4,53.4,4.6
			C91.1,37.2,93.4,52.3,87.9,65.4L87.9,65.4z"/>
		<path id="Pfad_1783" class="st1" d="M64.6,35.7l2.3-1.2c-0.5-1-1-1.9-1.5-2.7l-2.2,1.4C63.7,33.9,64.1,34.8,64.6,35.7L64.6,35.7z"
			/>
		<path id="Pfad_1784" class="st1" d="M62.3,31.9l2.1-1.5c-4-5.7-9.4-8.1-14.5-6.7l0.7,2.5C54.7,25.1,59,27.2,62.3,31.9L62.3,31.9z"
			/>
		<path id="Pfad_1785" class="st1" d="M44.8,82.6c0.7,0.6,1.5,1.2,2.3,1.7l1.3-2.2c-0.7-0.4-1.3-0.9-1.9-1.4L44.8,82.6z"/>
		<path id="Pfad_1786" class="st1" d="M43.3,77l-2.2,1.5c0.5,0.8,1.1,1.5,1.7,2.2l2-1.7C44.3,78.3,43.8,77.7,43.3,77z"/>
		<path id="Pfad_1787" class="st1" d="M40.9,72.6l-2.4,1.1c0.4,0.8,0.8,1.7,1.2,2.4l2.3-1.3C41.6,74.2,41.2,73.4,40.9,72.6
			L40.9,72.6z"/>
	</g>
	<g id="Gruppe_46498" transform="translate(43.666 -41.501)">
		<path id="Pfad_1788" class="st0" d="M155.2,260.2c0,1.7,1.4,3,3,3c0,0,0,0,0,0h27.3c1.7,0,3-1.4,3-3c0,0,0,0,0,0V236
			c0-1.7-1.4-3-3-3c0,0,0,0,0,0h-27.3c-1.7,0-3,1.4-3,3c0,0,0,0,0,0V260.2z"/>
		<g id="Gruppe_46497" transform="translate(152 208)">
			<path id="Pfad_1789" class="st1" d="M35,23.7v-6.3C35,9,28.2,2.2,19.8,2.2C11.5,2.2,4.7,9,4.7,17.4v6.3c-1.8,0.6-3,2.3-3,4.3
				v24.2c0,2.5,2,4.5,4.5,4.5h27.3c2.5,0,4.5-2,4.5-4.5V28C38,26.1,36.8,24.4,35,23.7z M19.8,5.3c6.7,0,12.1,5.4,12.1,12.1v6.1h-3
				v-6.1c0-5-4.1-9.1-9.1-9.1c-5,0-9.1,4.1-9.1,9.1v6.1h-3v-6.1C7.7,10.7,13.1,5.3,19.8,5.3L19.8,5.3z M25.9,23.4H13.8v-6.1
				c0-3.3,2.6-6.1,6-6.1s6.1,2.6,6.1,6c0,0.1,0,0.1,0,0.2L25.9,23.4z M35,52.2c0,0.8-0.7,1.5-1.5,1.5h0H6.2c-0.8,0-1.5-0.7-1.5-1.5
				l0,0V28c0-0.8,0.7-1.5,1.5-1.5h0h27.3c0.8,0,1.5,0.7,1.5,1.5v0V52.2z"/>
			<path id="Pfad_1790" class="st1" d="M19.8,29.5c-4.2,0-7.6,3.4-7.6,7.5c0,2.4,1.1,4.6,3,6.1v7.6h9.1v-7.6c3.3-2.5,4-7.2,1.5-10.6
				C24.5,30.6,22.2,29.5,19.8,29.5z M22.1,41l-0.8,0.4v6.3h-3v-6.3L17.6,41c-1.4-0.8-2.3-2.3-2.3-3.9c0-2.5,2-4.6,4.5-4.6
				c2.5,0,4.6,2,4.6,4.5c0,0,0,0.1,0,0.1C24.4,38.7,23.5,40.2,22.1,41L22.1,41z"/>
		</g>
	</g>
</g>
</svg>
