<?xml version="1.0" encoding="utf-8"?>
<!-- Generator: Adobe Illustrator 24.1.2, SVG Export Plug-In . SVG Version: 6.00 Build 0)  -->
<svg version="1.1" id="Ebene_1" xmlns="http://www.w3.org/2000/svg" xmlns:xlink="http://www.w3.org/1999/xlink" x="0px" y="0px"
	 viewBox="0 0 65 33" style="enable-background:new 0 0 65 33;" xml:space="preserve">
<style type="text/css">
	.st0{fill:#D74B00;}
	.st1{enable-background:new    ;}
</style>
<g id="Gruppe_46624" transform="translate(-655 -3401)">
	<g id="Page-1" transform="translate(583.43 3297.972)">
		<g id="_027---AR-360-Degree-View" transform="translate(97.13 106.647)">
			<path id="Shape" class="st0" d="M20.7,11.9l-3.1,1.7l-3.1-1.7c-0.4-0.2-1-0.1-1.2,0.4c-0.2,0.4-0.1,1,0.4,1.2l0,0l3.1,1.6v2.1
				c0,0.5,0.4,0.9,0.9,0.8c0.5,0,0.8-0.4,0.8-0.8v-2.1l3.1-1.6c0.4-0.2,0.6-0.8,0.4-1.2C21.7,11.8,21.1,11.7,20.7,11.9L20.7,11.9z"
				/>
			<path id="Shape-2" class="st0" d="M28.8,20.7V8.4c0-0.3-0.1-0.6-0.4-0.8c0,0,0,0,0,0L18,1.5c-0.2-0.1-0.5-0.1-0.8,0L6.8,7.6
				c0,0,0,0,0,0C6.5,7.8,6.4,8.1,6.4,8.4v12.3c0,0.3,0.2,0.6,0.4,0.8l10.4,6.2c0.2,0.1,0.5,0.1,0.8,0l10.4-6.2
				C28.7,21.3,28.8,21,28.8,20.7z M27.2,20.2l-8.8,5.2v-2.9c0-0.4-0.4-0.8-0.8-0.8s-0.8,0.4-0.8,0.8l0,0v2.9L8,20.2V9.9l2,1.2
				c0.4,0.2,0.8,0.1,1-0.3c0,0,0-0.1,0-0.1c0.2-0.4,0.1-0.9-0.3-1.2L8.9,8.4l8.7-5.2l8.7,5.2l-1.9,1.1c-0.4,0.3-0.5,0.8-0.3,1.2
				c0.2,0.4,0.6,0.6,1,0.4c0,0,0.1,0,0.1,0l2-1.2L27.2,20.2z"/>
		</g>
		<g id="Gruppe_46618" transform="translate(92.57 122.076)">
			<path id="Pfad_1799" class="st0" d="M7.1,8.5c-0.4,0-0.7-0.3-0.7-0.7c0-0.2,0.1-0.5,0.3-0.6l10.1-5.8c0.3-0.2,0.7-0.1,0.9,0.2
				s0.1,0.7-0.2,0.9c0,0,0,0,0,0L7.4,8.4C7.3,8.5,7.2,8.5,7.1,8.5z"/>
		</g>
		<g id="Gruppe_46619" transform="translate(112.276 122.076)">
			<path id="Pfad_1800" class="st0" d="M17.1,8.5c-0.1,0-0.2,0-0.3-0.1L6.7,2.6C6.4,2.4,6.3,2,6.5,1.7c0.2-0.3,0.6-0.4,0.9-0.2
				l10.1,5.8c0.3,0.2,0.4,0.6,0.2,0.9C17.6,8.4,17.4,8.5,17.1,8.5L17.1,8.5z"/>
		</g>
		<g id="Gruppe_46620" transform="translate(107.661 103.028)">
			<path id="Pfad_1801" class="st0" d="M7.1,14.4c-0.4,0-0.7-0.3-0.7-0.7V2c0-0.4,0.3-0.7,0.7-0.7S7.7,1.7,7.7,2c0,0,0,0,0,0v11.6
				C7.7,14.1,7.4,14.4,7.1,14.4z"/>
		</g>
	</g>
	<g class="st1">
		<path class="st0" d="M668.8,3421.2H665l-0.7,2.2h-2.6l3.6-10.8h3.1l3.6,10.8h-2.6L668.8,3421.2z M668.2,3419.2l-0.1-0.4
			c-1.1-3.5-1.2-4.4-1.2-4.4s-0.1,0.9-1.2,4.4l-0.1,0.4H668.2z"/>
		<path class="st0" d="M676.7,3419.6h-0.8v3.7h-2.5v-10.8h3.7c2.4,0,4,1.4,4,3.5c0,1.6-0.8,2.7-2,3.2l2.7,4.1H679L676.7,3419.6z
			 M675.9,3417.6h1.2c1.1,0,1.6-0.5,1.6-1.6c0-0.9-0.6-1.5-1.6-1.5h-1.2V3417.6z"/>
	</g>
</g>
</svg>
