<?xml version="1.0" encoding="utf-8"?>
<!-- Generator: Adobe Illustrator 24.1.2, SVG Export Plug-In . SVG Version: 6.00 Build 0)  -->
<svg version="1.1" id="Ebene_1" xmlns="http://www.w3.org/2000/svg" xmlns:xlink="http://www.w3.org/1999/xlink" x="0px" y="0px"
	 viewBox="0 0 18 14" style="enable-background:new 0 0 18 14;" xml:space="preserve">
<style type="text/css">
	.st0{fill:#FFFFFF;}
</style>
<path id="Icon_awesome-check" class="st0" d="M6.4,12.6L1.2,7.4c-0.3-0.3-0.3-0.8,0-1.1c0,0,0,0,0,0l1.1-1.1c0.3-0.3,0.8-0.3,1.1,0
	c0,0,0,0,0,0L7,8.6l7.5-7.5c0.3-0.3,0.8-0.3,1.1,0c0,0,0,0,0,0l1.1,1.1c0.3,0.3,0.3,0.8,0,1.1c0,0,0,0,0,0l-9.2,9.2
	C7.3,12.9,6.7,12.9,6.4,12.6C6.4,12.6,6.4,12.6,6.4,12.6z"/>
</svg>
