<svg xmlns="http://www.w3.org/2000/svg" width="31.911" height="35.609" viewBox="0 0 31.911 35.609">
  <g id="headphones" transform="translate(-11.155 -3.875)">
    <path id="Pfad_1799" data-name="Pfad 1799" d="M89.378,14.869a13.827,13.827,0,0,1,3.462,25.38v6.46" transform="translate(-57.215 -7.727)" fill="none" stroke="#fff" stroke-linecap="round" stroke-linejoin="round" stroke-width="1"/>
    <path id="Pfad_1800" data-name="Pfad 1800" d="M54.378,49.518a5.768,5.768,0,1,0,5.768-5.768A5.768,5.768,0,0,0,54.378,49.518Z" transform="translate(-31.444 -28.992)" fill="none" stroke="#fff" stroke-linecap="round" stroke-linejoin="round" stroke-width="1"/>
    <path id="Pfad_1801" data-name="Pfad 1801" d="M63.128,15.911V5.529a1.154,1.154,0,0,1,1.154-1.154H68.9A1.154,1.154,0,0,1,70.05,5.529V15.911" transform="translate(-37.887)" fill="none" stroke="#fff" stroke-linecap="round" stroke-linejoin="round" stroke-width="1"/>
    <path id="Pfad_1802" data-name="Pfad 1802" d="M14.86,34.814l-1.44-.36a2.307,2.307,0,0,1-1.36-3.518l2.8-4.2V25.585c0-5.448,4.412-10.015,10.381-11.229" transform="translate(0 -7.349)" fill="none" stroke="#fff" stroke-linecap="round" stroke-linejoin="round" stroke-width="1"/>
    <path id="Pfad_1803" data-name="Pfad 1803" d="M40.341,126.008v-3.444l-1.549.257a4.581,4.581,0,0,1-1.914-.082" transform="translate(-18.559 -87.024)" fill="none" stroke="#fff" stroke-linecap="round" stroke-linejoin="round" stroke-width="1"/>
    <path id="Pfad_1804" data-name="Pfad 1804" d="M37.6,65.625A11.536,11.536,0,0,1,26.061,77.161H23.753" transform="translate(-8.894 -45.099)" fill="none" stroke="#fff" stroke-linecap="round" stroke-linejoin="round" stroke-width="1"/>
  </g>
</svg>
