<svg xmlns="http://www.w3.org/2000/svg" width="56" height="89.82" viewBox="0 0 56 89.82">
  <g id="Gruppe_46401" data-name="Gruppe 46401" transform="translate(-645.619 -925.886)">
    <path id="flaticon1586421920-svg" d="M673.619,925.886a28.032,28.032,0,0,0-28,28v33.82a28,28,0,1,0,56,0v-33.82A28.032,28.032,0,0,0,673.619,925.886Zm24.642,28v.442a53.052,53.052,0,0,1-23.526,6.057v-9.363a5.274,5.274,0,0,0,4.149-5.148v-7.017a5.274,5.274,0,0,0-4.149-5.148v-4.439A24.674,24.674,0,0,1,698.261,953.886Zm-24.642-18.059a3.032,3.032,0,0,1,3.028,3.028v7.018a3.028,3.028,0,1,1-6.057,0v-7.017A3.033,3.033,0,0,1,673.619,935.827Zm-1.12-6.558v4.441a5.275,5.275,0,0,0-4.147,5.148v7.015a5.275,5.275,0,0,0,4.147,5.148v9.361a53.044,53.044,0,0,1-23.524-6.057v-.441A24.673,24.673,0,0,1,672.5,929.269Zm1.12,83.08a24.671,24.671,0,0,1-24.645-24.643V956.842a55.333,55.333,0,0,0,49.286,0v30.863a24.672,24.672,0,0,1-24.642,24.644Z" fill="#fff"/>
    <path id="Pfad_1714" data-name="Pfad 1714" d="M672.616,960.843a52.427,52.427,0,0,1-20.658-5.653,23.377,23.377,0,0,1,20.912-22.547l-.015,1.72a6.916,6.916,0,0,0-4.247,6.274l-.063,7.091a6.913,6.913,0,0,0,4.132,6.351Z" transform="translate(-1.489 -1.587)" fill="#fff"/>
  </g>
</svg>
