<?xml version="1.0" encoding="utf-8"?>
<!-- Generator: Adobe Illustrator 24.1.2, SVG Export Plug-In . SVG Version: 6.00 Build 0)  -->
<svg version="1.1" id="Ebene_1" xmlns="http://www.w3.org/2000/svg" xmlns:xlink="http://www.w3.org/1999/xlink" x="0px" y="0px"
	 viewBox="0 0 166 32" style="enable-background:new 0 0 166 32;" xml:space="preserve">
<style type="text/css">
	.st0{fill:#D5D5D5;}
</style>
<g id="Gruppe_46790" transform="translate(-328 -1006)">
	<path id="Pfad_1804" class="st0" d="M329.4,1010.9l12.2-1.7v11.8h-12.2 M343.1,1009l16.2-2.4v14.3h-16.2 M329.4,1022.2h12.2v11.8
		l-12.2-1.7 M343.1,1022.4h16.2v14.2l-16.2-2.3 M368.4,1012.4h2.3l3.6,13c0.3,0.9,0.4,1.8,0.5,2.8c1.3-5.3,3-10.5,4.4-15.8h2
		l3.1,11.3c0.5,1.5,0.8,3,1.1,4.5c1.1-5.3,2.7-10.5,4-15.8h2.3l-5.1,18.2h-2.5l-3.7-13c-0.2-0.7-0.3-1.4-0.3-2.2
		c-0.1,0.6-0.2,1.3-0.3,1.9l-3.7,13.3c-0.8,0-1.6,0-2.5,0L368.4,1012.4 M393.1,1012.6c0.1-0.7,0.8-1.3,1.5-1.2
		c0.8,0.1,1.3,0.8,1.2,1.5c-0.1,0.8-0.8,1.3-1.5,1.2c-0.6-0.1-1.1-0.6-1.2-1.2 M393.4,1017.6h2.1v13h-2.1 M401,1019.6
		c1.2-2.1,3.9-3,6.1-2.1c1.7,0.7,2.4,2.7,2.5,4.5c0.1,2.8,0,5.7,0,8.6h-2.1c0-2.7,0.1-5.5,0-8.2c-0.1-1.4-0.6-3-2.1-3.3
		c-2.2-0.7-4.3,1.3-4.4,3.4c-0.1,2.7,0,5.4,0,8.1H399v-13h2.1L401,1019.6 M421.8,1011.4h2.1v19.2h-2.1l-0.1-2.1
		c-1.5,2.4-4.7,3.2-7.1,1.7c-0.2-0.1-0.4-0.3-0.6-0.4c-1.5-1.5-2.2-3.6-2-5.7c-0.1-2.1,0.8-4.2,2.4-5.7c2.2-1.8,6-1.7,7.5,0.9
		L421.8,1011.4 M417.5,1019c-1.6,0.4-2.8,1.7-3,3.3c-0.5,1.9-0.2,4,0.9,5.6c1.3,1.5,3.6,1.7,5.1,0.5c0.1-0.1,0.2-0.2,0.3-0.3
		c0.8-1,1.3-2.3,1.2-3.6c0-1.4,0.1-2.9-0.8-4C420.3,1019.2,418.9,1018.7,417.5,1019 M431.8,1017.2c1.9-0.3,3.8,0.2,5.2,1.4
		c1.4,1.5,2.1,3.6,1.9,5.7c0,1.9-0.7,3.7-2.1,5c-2.8,2.5-8,2-9.8-1.5c-1.4-2.9-1.1-7,1.4-9.2
		C429.5,1017.9,430.6,1017.4,431.8,1017.2 M431.4,1019.1c-3,0.9-3.5,4.9-2.6,7.5c0.9,2.2,3.3,3.2,5.5,2.4c0.1,0,0.2-0.1,0.3-0.1
		c1.3-0.8,2.2-2.2,2.2-3.7c0.3-1.8-0.1-3.6-1.2-5C434.5,1019,432.9,1018.6,431.4,1019.1 M440,1017.6h2.2l2.5,9.3
		c0.2,0.6,0.3,1.2,0.3,1.8c1-3.7,2.2-7.4,3.3-11.1h1.9c1,3.7,2.1,7.3,2.9,11.1c0.8-3.7,2-7.4,2.8-11c0.7,0,1.4,0,2.1-0.1l-3.9,13
		H452c-0.9-3.5-2.1-7-2.9-10.5c-0.9,3.6-2.1,7-3.2,10.5h-2.1L440,1017.6 M462.9,1017.2c1.3-0.1,2.6,0.1,3.8,0.5
		c0.3,0.7,0.1,1.5,0.2,2.2c-1.4-0.9-3.4-1.5-5-0.5c-0.8,0.5-1.1,1.6-0.6,2.4c0.1,0.2,0.3,0.4,0.5,0.5c1.5,1,3.4,1.2,4.7,2.5
		c1.3,1.4,1.2,3.6-0.2,4.8c-0.1,0.1-0.3,0.2-0.4,0.3c-2.2,1.2-4.8,1.3-7,0.2v-2.3c1.6,1.3,3.7,1.7,5.6,1c0.8-0.5,1.1-1.6,0.6-2.4
		c-0.1-0.2-0.3-0.4-0.4-0.5c-1.5-1.1-3.6-1.3-4.9-2.7c-1.2-1.4-1.1-3.6,0.3-4.8c0,0,0,0,0.1-0.1C461,1017.8,462,1017.4,462.9,1017.2
		 M477.3,1012.1l0.7-0.1v18.5h-2l0-15.4c-1.3,0.9-2.7,1.6-4.2,2.1l0-2.1C473.8,1014.4,475.7,1013.4,477.3,1012.1 M485.5,1012.1
		c1.8-0.3,3.7,0.4,4.8,1.8c1.5,2.1,1.6,4.9,1.7,7.4c0,2.6-0.3,5.5-2,7.7c-1.7,2.1-4.6,2.5-6.8,1c-1.7-1.2-2.4-3.4-2.7-5.3
		c-0.5-2.9-0.2-6,0.7-8.8C481.9,1013.9,483.5,1012.5,485.5,1012.1 M485.2,1014c-1.8,0.8-2.4,2.9-2.6,4.7c-0.3,2.4-0.3,4.9,0.2,7.4
		c0.2,1.3,1,2.4,2.1,3c1.4,0.7,3.1,0.1,3.8-1.2c1.1-2,1.2-4.2,1.2-6.4c0-2.1-0.1-4.4-1.3-6.2C487.9,1013.9,486.5,1013.5,485.2,1014"
		/>
</g>
</svg>
