<svg enable-background="new 0 0 37 37" viewBox="0 0 37 37" xmlns="http://www.w3.org/2000/svg"><g fill="#fff"><path d="m31 6.2c-6.9-6.8-18-6.7-24.7.2-6.7 6.8-6.7 17.7 0 24.6 6.4 6.4 16.7 6.9 23.6 1 .2-.2.2-.5.1-.7-.2-.2-.5-.2-.7-.1-1.8 1.5-3.9 2.6-6.1 3.2 1.2-1 2.2-2.2 3-3.6.6-1 1.1-2.1 1.5-3.3 1.1-.4 2.2-.9 3.3-1.5 1.4-.8 2.6-1.8 3.6-3-.7 2.5-2 4.8-3.8 6.8-.2.2-.2.5 0 .7s.5.2.7 0c6.4-6.9 6.2-17.7-.5-24.3zm-.7.7c2 2 3.5 4.5 4.2 7.2-1-1.2-2.2-2.3-3.6-3-1-.6-2.1-1.1-3.3-1.5-.5-1.3-1-2.5-1.7-3.6-.2-.2-.5-.3-.7-.2s-.3.5-.2.7c.5.9 1 1.8 1.4 2.7-2.5-.7-5.1-1.1-7.7-1.1s-5.2.3-7.7 1.1c.5-1.2 1.1-2.4 1.9-3.5 1.7-2.3 3.7-3.6 5.9-3.6 2 .1 3.9 1.1 5.2 2.7 0 .2.4.2.6.1.2-.2.2-.5.1-.7-.5-.5-1-1-1.5-1.4 2.6.7 5.1 2.1 7.1 4.1zm-21.5 9.4c-.3 0-.5.2-.5.5 0 .6-.1 1.2-.1 1.7 0 2.6.3 5.2 1.1 7.8-.8-.3-1.6-.7-2.3-1.1-3.1-1.8-4.7-4.1-4.7-6.6s1.7-4.8 4.7-6.6c.7-.4 1.5-.8 2.3-1.1-.4 1.3-.7 2.6-.8 3.9 0 .3.2.5.4.6h.1c.3 0 .5-.2.5-.4.2-1.5.5-3 1-4.5 2.6-.9 5.4-1.3 8.2-1.3s5.5.4 8.2 1.3c.9 2.7 1.3 5.4 1.3 8.2s-.4 5.6-1.3 8.2c-2.6.9-5.4 1.3-8.2 1.3s-5.6-.4-8.2-1.3c-.9-2.6-1.3-5.4-1.3-8.2 0-.6 0-1.1 0-1.7.1-.4-.2-.6-.4-.7zm-1.8-9.4c2-2 4.5-3.5 7.2-4.2-.8.7-1.6 1.5-2.2 2.3-1 1.4-1.8 2.9-2.3 4.5-1.1.4-2.2.9-3.3 1.5-1.4.8-2.6 1.8-3.6 3 .8-2.6 2.2-5.1 4.2-7.1zm0 23.3c-2-2-3.5-4.5-4.2-7.2 1 1.2 2.2 2.3 3.6 3 1 .6 2.1 1.1 3.3 1.5.4 1.1.9 2.2 1.5 3.3.8 1.4 1.8 2.6 3 3.6-2.7-.7-5.2-2.2-7.2-4.2zm18.3.1c-1.8 3-4.1 4.7-6.6 4.7s-4.8-1.7-6.6-4.7c-.4-.7-.8-1.5-1.1-2.3 2.5.7 5.1 1.1 7.8 1.1 2.6 0 5.2-.3 7.8-1.1-.5.8-.9 1.6-1.3 2.3zm5.1-5.1c-.7.4-1.5.8-2.3 1.1.7-2.5 1.1-5.1 1.1-7.8 0-2.6-.3-5.2-1.1-7.8.8.3 1.6.7 2.3 1.1 3 1.8 4.7 4.1 4.7 6.6s-1.6 5-4.7 6.8z"/><g transform="translate(10.686 15.147)"><path d="m1.3 1.5c.4-.2.7-.3 1.1-.3 1.1 0 1.7.6 1.7 1.4 0 .6-.3 1.1-.8 1.3.6.1 1 .6 1 1.2 0 .8-.6 1.5-1.8 1.5-.5 0-.9-.1-1.3-.3v-.8c.4.2.8.3 1.3.3.7 0 1-.4 1-.8 0-.5-.4-.8-1.2-.8h-.3v-.7h.3c.6 0 1-.3 1-.8s-.3-.8-.9-.8c-.4 0-.8.2-1.1.4z"/><path d="m8.3 2c-.3-.1-.5-.2-.8-.2-1 0-1.5.8-1.7 1.8.3-.3.8-.5 1.2-.5.8 0 1.5.6 1.6 1.4v.2c.1 1-.6 1.8-1.5 1.9-.1 0-.1 0-.2 0-1.2 0-1.9-1-1.9-2.5 0-1.7.9-3 2.5-3 .3 0 .5 0 .8.1zm-.5 2.8c.1-.5-.3-.9-.8-1h-.1c-.4 0-.8.2-1.1.5 0 1.1.5 1.6 1.1 1.6s.9-.5.9-1.1z"/><path d="m11.1 1.2c1.2 0 1.9 1 1.9 2.7 0 1.6-.6 2.7-1.9 2.7-1.2 0-1.8-1.1-1.8-2.7-.1-1.7.6-2.7 1.8-2.7zm0 4.6c.7 0 1.1-.7 1.1-2s-.5-2-1.1-2-1 .6-1 2c-.1 1.4.4 2 1 2z"/><path d="m14.8 1.1c.7 0 1.3.5 1.3 1.2v.1c0 .7-.6 1.3-1.2 1.3-.7 0-1.3-.5-1.3-1.2 0 0 0 0 0-.1-.1-.8.5-1.3 1.2-1.3zm0 1.9c.4 0 .7-.3.7-.7 0-.4-.3-.7-.7-.7-.4 0-.7.3-.7.7 0 .4.3.7.7.7z"/></g></g></svg>