<?xml version="1.0" encoding="utf-8"?>
<!-- Generator: Adobe Illustrator 24.1.2, SVG Export Plug-In . SVG Version: 6.00 Build 0)  -->
<svg version="1.1" id="Ebene_1" xmlns="http://www.w3.org/2000/svg" xmlns:xlink="http://www.w3.org/1999/xlink" x="0px" y="0px"
	 viewBox="0 0 65 67" style="enable-background:new 0 0 65 67;" xml:space="preserve">
<style type="text/css">
	.st0{fill:#D74B00;}
</style>
<g id="Page-1" transform="translate(-92.57 -103.028)">
	<g id="_027---AR-360-Degree-View" transform="translate(101.235 112.896)">
		<path id="Shape" class="st0" d="M29.5,21.8L23.6,25l-5.9-3.2c-0.8-0.4-1.8-0.1-2.3,0.7c-0.4,0.8-0.1,1.8,0.7,2.3l5.8,3.1v4
			c0,0.9,0.7,1.7,1.7,1.7c0.9,0,1.7-0.7,1.7-1.7v-4l5.8-3.1c0.8-0.4,1.1-1.4,0.7-2.3S30.4,21.4,29.5,21.8
			C29.5,21.8,29.5,21.8,29.5,21.8L29.5,21.8z"/>
		<path id="Shape-2" class="st0" d="M46.5,38.6V15.2c0-0.6-0.3-1.1-0.8-1.4c0,0,0,0-0.1,0L24.4,2c-0.5-0.3-1.1-0.3-1.5,0L1.6,13.7
			c0,0,0,0-0.1,0c-0.5,0.3-0.8,0.9-0.8,1.4v23.4c0,0.6,0.3,1.2,0.9,1.5l21.2,11.7c0.5,0.3,1.1,0.3,1.5,0l21.2-11.7
			C46.2,39.8,46.5,39.2,46.5,38.6z M43.2,37.6l-18,9.9v-5.6c0-0.9-0.7-1.7-1.6-1.7c-0.9,0-1.7,0.7-1.7,1.6c0,0,0,0.1,0,0.1v5.6
			L4,37.6V18l4.1,2.3c0.8,0.4,1.8,0.1,2.2-0.6c0,0,0,0,0,0c0.4-0.8,0.1-1.8-0.7-2.3l-3.9-2.1l17.8-9.8l17.8,9.8l-3.9,2.1
			c-0.8,0.5-1.1,1.5-0.7,2.3c0.4,0.8,1.4,1.1,2.2,0.7c0,0,0,0,0,0l4.1-2.3L43.2,37.6z"/>
	</g>
	<g id="Gruppe_46618" transform="translate(92.57 142.216)">
		<path id="Pfad_1799" class="st0" d="M2.1,15.4c-0.7,0-1.3-0.6-1.3-1.3c0-0.5,0.2-0.9,0.6-1.1L20.6,2c0.6-0.4,1.4-0.1,1.7,0.5
			c0.4,0.6,0.1,1.4-0.5,1.7L2.7,15.3C2.5,15.4,2.3,15.4,2.1,15.4z"/>
	</g>
	<g id="Gruppe_46619" transform="translate(133.12 142.216)">
		<path id="Pfad_1800" class="st0" d="M21.2,15.4c-0.2,0-0.4-0.1-0.6-0.2L1.4,4.2C0.8,3.8,0.6,3.1,0.9,2.5C1.3,1.8,2.1,1.6,2.7,2
			l19.2,11.1c0.6,0.4,0.8,1.1,0.5,1.7C22.1,15.2,21.7,15.4,21.2,15.4L21.2,15.4z"/>
	</g>
	<g id="Gruppe_46620" transform="translate(122.818 103.028)">
		<path id="Pfad_1801" class="st0" d="M2.1,26.5c-0.7,0-1.3-0.6-1.3-1.3V3.1c0-0.7,0.6-1.3,1.3-1.3c0.7,0,1.3,0.6,1.3,1.3v22.1
			C3.3,25.9,2.8,26.5,2.1,26.5C2.1,26.5,2.1,26.5,2.1,26.5z"/>
	</g>
</g>
</svg>
