<?xml version="1.0" encoding="utf-8"?>
<!-- Generator: Adobe Illustrator 24.1.2, SVG Export Plug-In . SVG Version: 6.00 Build 0)  -->
<svg version="1.1" id="Ebene_1" xmlns="http://www.w3.org/2000/svg" xmlns:xlink="http://www.w3.org/1999/xlink" x="0px" y="0px"
	 viewBox="0 0 14 13" style="enable-background:new 0 0 14 13;" xml:space="preserve">
<style type="text/css">
	.st0{fill:none;stroke:#FFFFFF;stroke-linecap:round;stroke-linejoin:round;}
</style>
<g id="Icon_feather-copy" transform="translate(-2.5 -2.5)">
	<path id="Pfad_1774" class="st0" d="M8.3,7.6h4.3c0.5,0,1,0.4,1,1v4.3c0,0.5-0.4,1-1,1H8.3c-0.5,0-1-0.4-1-1V8.5
		C7.4,8,7.8,7.6,8.3,7.6z"/>
	<path id="Pfad_1775" class="st0" d="M5.5,10.5H5c-0.5,0-1-0.4-1-1c0,0,0,0,0,0V5.1c0-0.5,0.4-1,1-1l0,0h4.3c0.5,0,1,0.4,1,1v0.5"/>
</g>
</svg>
