<svg xmlns="http://www.w3.org/2000/svg" width="73.871" height="56.835" viewBox="0 0 73.871 56.835">
  <g id="gesture" transform="translate(-6.5 1.5)">
    <path id="Pfad_1811" data-name="Pfad 1811" d="M.331,7.669H21" transform="translate(7.669 4.825)" fill="none" stroke="#fff" stroke-linecap="round" stroke-linejoin="round" stroke-width="3"/>
    <path id="Pfad_1812" data-name="Pfad 1812" d="M8.6,26.673.331,16.337,8.6,6" transform="translate(7.669 -3.844)" fill="none" stroke="#fff" stroke-linecap="round" stroke-linejoin="round" stroke-width="3"/>
    <path id="Pfad_1813" data-name="Pfad 1813" d="M33,7.669H12.331" transform="translate(45.867 4.825)" fill="none" stroke="#fff" stroke-linecap="round" stroke-linejoin="round" stroke-width="3"/>
    <path id="Pfad_1814" data-name="Pfad 1814" d="M14.331,26.673,22.6,16.337,14.331,6" transform="translate(56.271 -3.844)" fill="none" stroke="#fff" stroke-linecap="round" stroke-linejoin="round" stroke-width="3"/>
    <path id="Pfad_1815" data-name="Pfad 1815" d="M19.135,9.788a4.134,4.134,0,0,1,8.269,0V29.45l16.207,4.829a5.3,5.3,0,0,1,3.7,6.288c-.55,2.373-3.072,16.5-3.514,18.922h-25.3L5.823,40.505C.8,32.832,13.413,30.17,19.123,42.953Z" transform="translate(20.533 -5.654)" fill="none" stroke="#fff" stroke-linecap="round" stroke-linejoin="round" stroke-width="3"/>
  </g>
</svg>
