<?xml version="1.0" encoding="utf-8"?>
<!-- Generator: Adobe Illustrator 24.1.3, SVG Export Plug-In . SVG Version: 6.00 Build 0)  -->
<svg version="1.1" id="Ebene_1" xmlns="http://www.w3.org/2000/svg" xmlns:xlink="http://www.w3.org/1999/xlink" x="0px" y="0px"
	 viewBox="0 0 29 19" style="enable-background:new 0 0 29 19;" xml:space="preserve">
<style type="text/css">
	.st0{fill:#FFFFFF;}
</style>
<g id="Gruppe_46843">
	<g id="post-linkedin">
		<path id="Pfad_1813" class="st0" d="M15.2,2.1h-12c-0.8,0-1.5,0.7-1.5,1.5v12c0,0.8,0.7,1.5,1.5,1.5h12c0.8,0,1.5-0.7,1.5-1.5v-12
			C16.7,2.8,16,2.1,15.2,2.1z M6.2,14.8H4V8.1h2.3V14.8z M5.1,6.8c-0.7,0-1.4-0.6-1.4-1.3s0.6-1.4,1.3-1.4s1.4,0.6,1.4,1.3v0
			C6.4,6.2,5.8,6.8,5.1,6.8C5.1,6.8,5.1,6.8,5.1,6.8z M14.5,14.8h-2.3v-4c0-0.6-0.5-1.1-1.1-1.1S10,10.3,10,10.9v4H7.7V8.1H10V9
			c0.4-0.6,1.1-1,1.9-1c1.4,0,2.6,1.2,2.6,2.6V14.8z"/>
	</g>
</g>
<path id="Pfad_1814" class="st0" d="M19.1,10.1C19.1,10.1,19,10.1,19.1,10.1c-0.3,0-0.4-0.2-0.4-0.4V9c0-2.7,2.2-4.9,4.9-4.9h0.1
	V2.5c0-0.2,0.2-0.4,0.4-0.4c0.1,0,0.2,0,0.3,0.1l3.3,3.4c0.1,0.1,0.1,0.4,0,0.5l-3.3,3.4c-0.1,0.1-0.4,0.2-0.5,0
	c-0.1-0.1-0.1-0.2-0.1-0.3V7.6h-0.6c-1.6,0-3,0.9-3.7,2.3C19.4,10,19.2,10.1,19.1,10.1z"/>
</svg>
