<?xml version="1.0" encoding="UTF-8"?> <!-- Generator: Adobe Illustrator 24.1.2, SVG Export Plug-In . SVG Version: 6.00 Build 0) --> <svg xmlns="http://www.w3.org/2000/svg" xmlns:xlink="http://www.w3.org/1999/xlink" version="1.1" id="Ebene_1" x="0px" y="0px" viewBox="0 0 102 31" style="enable-background:new 0 0 102 31;" xml:space="preserve"> <style type="text/css"> .st0{fill:#FFFFFF;} </style> <g id="Gruppe_46828" transform="translate(-248.722 -84.185)"> <path id="Pfad_1809" class="st0" d="M287.7,91.7c0,0-9.5-0.5-12,11.1c-0.5,2.5-1.3,10.5,8.4,11.4c3.1,0.3,6.2-0.4,8.8-2.1l1.3-3.6 c-2.5,1.5-5.3,2.2-8.2,2.1c-4.6-0.1-5.8-3.1-5.4-6.3h14.4c0,0,1.1-4.6,0.1-7.9C293.9,92.2,290,91.7,287.7,91.7 M290.9,101h-9.5 c0,0,1.6-5.3,6.2-5.3C291.8,95.6,291,99.8,290.9,101 M304,106.5l1.8-8.9h4.6l1.3-3.5h-5.3l0.8-4c0,0,0.2-0.8-0.7-0.6 c-1.8,0.4-3.4,1.1-4.9,2.1l-0.5,2.6h-3.2l-1.4,3.5h3.9c0,0-1.9,9.7-2.1,10.7c-0.2,1-1.1,5.9,5.2,5.8c1.8,0.1,3.5-0.5,5-1.5l1.1-2.6 c-1.1,0.7-2.4,1.1-3.7,1.1C303.1,111.1,303.5,108.7,304,106.5 M323,91.8c-2.9,0.2-5.8,1.1-8.2,2.7l-1.4,3.6 c2.5-1.5,5.4-2.3,8.3-2.5c1.9-0.1,3.9,0.2,3.9,2.1c-0.1,0.9-0.2,1.7-0.5,2.5c0,0-15.1-0.8-14.9,9.1c0.1,2.7,2.4,4.9,6.2,5 c2.4,0.1,4.7-0.8,6.5-2.4h0l-0.6,2.6l5.5-1.7c0,0,2.2-11,2.6-12.7C330.7,98.9,332.4,91.7,323,91.8 M323.2,108 c-1.2,1.7-3.1,2.7-5.1,2.6c-3.4,0-3.3-2.6-3.3-2.6c0.3-5,9.8-4.5,9.8-4.5C324.5,105.1,324,106.7,323.2,108 M263.3,100.7h5.7l0,0.2 c0,0-1.4,6.8-1.5,7.3c-2.6,2-13,3.5-12.8-6.4c0.1-7.6,5.3-11.3,8.2-12.3c1.9-0.6,3.8-0.9,5.7-0.9c1,0,1.8,0,3,0.1l1.6-4 c-1.7-0.2-3.4-0.3-5.2-0.3c-4.7-0.1-9.2,1.4-12.9,4.3c-4,3.3-6.3,8.1-6.3,13.3c-0.1,3.4,1.4,12.3,12.7,12.4c4.7,0,8.6-1.4,11.1-4.1 l2.6-13h-10.5L263.3,100.7z"></path> <path id="Pfad_1810" class="st0" d="M342.3,110.7c-4.2,0-5.9-2.2-5.8-5.6c0,0,0.1-9.6,9.2-9.9c1-0.1,2.1,0,3.1,0.2l1.3-3.2 c-1.4-0.3-2.9-0.5-4.4-0.5c-2.2,0-13.9,0.9-14.4,13.7c0,0-0.6,8.2,9.1,8.8c3,0.2,5.9-0.6,8.4-2.2l1.3-3.6 C347.7,109.9,345,110.7,342.3,110.7"></path> </g> </svg> 